<mxfile host="Electron" modified="2023-10-29T13:32:31.663Z" agent="Mozilla/5.0 (Windows NT 10.0; Win64; x64) AppleWebKit/537.36 (KHTML, like Gecko) draw.io/22.0.3 Chrome/114.0.5735.289 Electron/25.8.4 Safari/537.36" etag="ojlV1wGlrgCwonOHs2p5" version="22.0.3" type="device">
  <diagram id="prtHgNgQTEPvFCAcTncT" name="Page-1">
    <mxGraphModel dx="1101" dy="2011" grid="1" gridSize="10" guides="1" tooltips="1" connect="1" arrows="1" fold="1" page="1" pageScale="1" pageWidth="827" pageHeight="1169" math="0" shadow="0">
      <root>
        <mxCell id="0" />
        <mxCell id="1" parent="0" />
        <mxCell id="dNxyNK7c78bLwvsdeMH5-19" value="New Car Insurance Case" style="swimlane;html=1;childLayout=stackLayout;resizeParent=1;resizeParentMax=0;horizontal=0;startSize=20;horizontalStack=0;" parent="1" vertex="1">
          <mxGeometry x="120" y="120" width="1070" height="270" as="geometry" />
        </mxCell>
        <mxCell id="dNxyNK7c78bLwvsdeMH5-20" value="Intake Flow" style="swimlane;html=1;startSize=20;horizontal=0;" parent="dNxyNK7c78bLwvsdeMH5-19" vertex="1">
          <mxGeometry x="20" width="1050" height="120" as="geometry" />
        </mxCell>
        <mxCell id="dNxyNK7c78bLwvsdeMH5-25" value="" style="edgeStyle=orthogonalEdgeStyle;rounded=0;orthogonalLoop=1;jettySize=auto;html=1;" parent="dNxyNK7c78bLwvsdeMH5-20" source="dNxyNK7c78bLwvsdeMH5-23" target="dNxyNK7c78bLwvsdeMH5-24" edge="1">
          <mxGeometry relative="1" as="geometry" />
        </mxCell>
        <mxCell id="dNxyNK7c78bLwvsdeMH5-23" value="New case" style="ellipse;whiteSpace=wrap;html=1;" parent="dNxyNK7c78bLwvsdeMH5-20" vertex="1">
          <mxGeometry x="40" y="40" width="40" height="40" as="geometry" />
        </mxCell>
        <mxCell id="bT0aJn8S0_L-WUXQSwk8-1" value="" style="edgeStyle=orthogonalEdgeStyle;rounded=0;orthogonalLoop=1;jettySize=auto;html=1;" edge="1" parent="dNxyNK7c78bLwvsdeMH5-20" source="dNxyNK7c78bLwvsdeMH5-24" target="dNxyNK7c78bLwvsdeMH5-30">
          <mxGeometry relative="1" as="geometry" />
        </mxCell>
        <mxCell id="dNxyNK7c78bLwvsdeMH5-24" value="Validate&amp;nbsp;" style="rounded=0;whiteSpace=wrap;html=1;fontFamily=Helvetica;fontSize=12;fontColor=#000000;align=center;" parent="dNxyNK7c78bLwvsdeMH5-20" vertex="1">
          <mxGeometry x="120" y="30" width="80" height="60" as="geometry" />
        </mxCell>
        <mxCell id="bT0aJn8S0_L-WUXQSwk8-6" value="" style="edgeStyle=orthogonalEdgeStyle;rounded=0;orthogonalLoop=1;jettySize=auto;html=1;" edge="1" parent="dNxyNK7c78bLwvsdeMH5-20" source="dNxyNK7c78bLwvsdeMH5-30" target="bT0aJn8S0_L-WUXQSwk8-5">
          <mxGeometry relative="1" as="geometry" />
        </mxCell>
        <mxCell id="dNxyNK7c78bLwvsdeMH5-30" value="enrich data" style="rounded=0;whiteSpace=wrap;html=1;fontFamily=Helvetica;fontSize=12;fontColor=#000000;align=center;" parent="dNxyNK7c78bLwvsdeMH5-20" vertex="1">
          <mxGeometry x="240" y="30" width="80" height="60" as="geometry" />
        </mxCell>
        <mxCell id="bT0aJn8S0_L-WUXQSwk8-17" value="" style="edgeStyle=orthogonalEdgeStyle;rounded=0;orthogonalLoop=1;jettySize=auto;html=1;" edge="1" parent="dNxyNK7c78bLwvsdeMH5-20" source="bT0aJn8S0_L-WUXQSwk8-5" target="bT0aJn8S0_L-WUXQSwk8-16">
          <mxGeometry relative="1" as="geometry" />
        </mxCell>
        <mxCell id="bT0aJn8S0_L-WUXQSwk8-18" value="YES" style="edgeLabel;html=1;align=center;verticalAlign=middle;resizable=0;points=[];" vertex="1" connectable="0" parent="bT0aJn8S0_L-WUXQSwk8-17">
          <mxGeometry x="-0.2571" y="1" relative="1" as="geometry">
            <mxPoint as="offset" />
          </mxGeometry>
        </mxCell>
        <mxCell id="bT0aJn8S0_L-WUXQSwk8-5" value="data complete" style="rhombus;whiteSpace=wrap;html=1;" vertex="1" parent="dNxyNK7c78bLwvsdeMH5-20">
          <mxGeometry x="355" y="25" width="75" height="70" as="geometry" />
        </mxCell>
        <mxCell id="bT0aJn8S0_L-WUXQSwk8-22" value="" style="edgeStyle=orthogonalEdgeStyle;rounded=0;orthogonalLoop=1;jettySize=auto;html=1;" edge="1" parent="dNxyNK7c78bLwvsdeMH5-20" source="bT0aJn8S0_L-WUXQSwk8-16" target="bT0aJn8S0_L-WUXQSwk8-21">
          <mxGeometry relative="1" as="geometry" />
        </mxCell>
        <mxCell id="bT0aJn8S0_L-WUXQSwk8-16" value="Determine experts needed" style="rounded=0;whiteSpace=wrap;html=1;" vertex="1" parent="dNxyNK7c78bLwvsdeMH5-20">
          <mxGeometry x="500" y="30" width="120" height="60" as="geometry" />
        </mxCell>
        <mxCell id="bT0aJn8S0_L-WUXQSwk8-21" value="Experts needed" style="rhombus;whiteSpace=wrap;html=1;" vertex="1" parent="dNxyNK7c78bLwvsdeMH5-20">
          <mxGeometry x="660" y="25" width="75" height="70" as="geometry" />
        </mxCell>
        <mxCell id="dNxyNK7c78bLwvsdeMH5-21" value="Manual steps" style="swimlane;html=1;startSize=20;horizontal=0;" parent="dNxyNK7c78bLwvsdeMH5-19" vertex="1">
          <mxGeometry x="20" y="120" width="1050" height="150" as="geometry" />
        </mxCell>
        <mxCell id="bT0aJn8S0_L-WUXQSwk8-12" value="" style="group" vertex="1" connectable="0" parent="dNxyNK7c78bLwvsdeMH5-21">
          <mxGeometry x="333" y="45" width="120" height="60" as="geometry" />
        </mxCell>
        <mxCell id="bT0aJn8S0_L-WUXQSwk8-9" value="&amp;nbsp; Manual Tasks" style="rounded=0;whiteSpace=wrap;html=1;align=left;" vertex="1" parent="bT0aJn8S0_L-WUXQSwk8-12">
          <mxGeometry width="120" height="60" as="geometry" />
        </mxCell>
        <mxCell id="bT0aJn8S0_L-WUXQSwk8-8" value="Clerk" style="shape=umlActor;verticalLabelPosition=bottom;verticalAlign=top;html=1;outlineConnect=0;" vertex="1" parent="bT0aJn8S0_L-WUXQSwk8-12">
          <mxGeometry x="96" y="10" width="14" height="30" as="geometry" />
        </mxCell>
        <mxCell id="bT0aJn8S0_L-WUXQSwk8-32" style="edgeStyle=orthogonalEdgeStyle;rounded=0;orthogonalLoop=1;jettySize=auto;html=1;exitX=1;exitY=0.5;exitDx=0;exitDy=0;entryX=0;entryY=0.5;entryDx=0;entryDy=0;" edge="1" parent="dNxyNK7c78bLwvsdeMH5-21" source="bT0aJn8S0_L-WUXQSwk8-26" target="bT0aJn8S0_L-WUXQSwk8-29">
          <mxGeometry relative="1" as="geometry" />
        </mxCell>
        <mxCell id="bT0aJn8S0_L-WUXQSwk8-26" value="&amp;nbsp; Determine &lt;br&gt;&amp;nbsp; involved parties" style="rounded=0;whiteSpace=wrap;html=1;align=left;" vertex="1" parent="dNxyNK7c78bLwvsdeMH5-21">
          <mxGeometry x="633" y="40" width="130" height="60" as="geometry" />
        </mxCell>
        <mxCell id="bT0aJn8S0_L-WUXQSwk8-27" value="Clerk" style="shape=umlActor;verticalLabelPosition=bottom;verticalAlign=top;html=1;outlineConnect=0;" vertex="1" parent="dNxyNK7c78bLwvsdeMH5-21">
          <mxGeometry x="736" y="45" width="14" height="30" as="geometry" />
        </mxCell>
        <mxCell id="bT0aJn8S0_L-WUXQSwk8-34" style="edgeStyle=orthogonalEdgeStyle;rounded=0;orthogonalLoop=1;jettySize=auto;html=1;exitX=0.25;exitY=1;exitDx=0;exitDy=0;entryX=0;entryY=0.5;entryDx=0;entryDy=0;" edge="1" parent="dNxyNK7c78bLwvsdeMH5-21" source="bT0aJn8S0_L-WUXQSwk8-29" target="bT0aJn8S0_L-WUXQSwk8-26">
          <mxGeometry relative="1" as="geometry">
            <Array as="points">
              <mxPoint x="853" y="120" />
              <mxPoint x="613" y="120" />
              <mxPoint x="613" y="70" />
            </Array>
          </mxGeometry>
        </mxCell>
        <mxCell id="bT0aJn8S0_L-WUXQSwk8-35" style="edgeStyle=orthogonalEdgeStyle;rounded=0;orthogonalLoop=1;jettySize=auto;html=1;exitX=0.5;exitY=1;exitDx=0;exitDy=0;entryX=0;entryY=0.75;entryDx=0;entryDy=0;" edge="1" parent="dNxyNK7c78bLwvsdeMH5-21" source="bT0aJn8S0_L-WUXQSwk8-29" target="bT0aJn8S0_L-WUXQSwk8-9">
          <mxGeometry relative="1" as="geometry">
            <mxPoint x="130" y="-30" as="targetPoint" />
            <Array as="points">
              <mxPoint x="885" y="130" />
              <mxPoint x="320" y="130" />
              <mxPoint x="320" y="90" />
            </Array>
          </mxGeometry>
        </mxCell>
        <mxCell id="bT0aJn8S0_L-WUXQSwk8-29" value="&amp;nbsp; Determine &lt;br&gt;&amp;nbsp; victim / causer" style="rounded=0;whiteSpace=wrap;html=1;align=left;" vertex="1" parent="dNxyNK7c78bLwvsdeMH5-21">
          <mxGeometry x="820" y="40" width="130" height="60" as="geometry" />
        </mxCell>
        <mxCell id="bT0aJn8S0_L-WUXQSwk8-30" value="Clerk" style="shape=umlActor;verticalLabelPosition=bottom;verticalAlign=top;html=1;outlineConnect=0;" vertex="1" parent="dNxyNK7c78bLwvsdeMH5-21">
          <mxGeometry x="923" y="45" width="14" height="30" as="geometry" />
        </mxCell>
        <mxCell id="bT0aJn8S0_L-WUXQSwk8-11" value="" style="endArrow=classic;html=1;rounded=0;exitX=0.5;exitY=1;exitDx=0;exitDy=0;entryX=0.5;entryY=0;entryDx=0;entryDy=0;" edge="1" parent="dNxyNK7c78bLwvsdeMH5-19" source="bT0aJn8S0_L-WUXQSwk8-5" target="bT0aJn8S0_L-WUXQSwk8-9">
          <mxGeometry width="50" height="50" relative="1" as="geometry">
            <mxPoint x="270" y="340" as="sourcePoint" />
            <mxPoint x="320" y="290" as="targetPoint" />
          </mxGeometry>
        </mxCell>
        <mxCell id="bT0aJn8S0_L-WUXQSwk8-14" value="NO" style="edgeLabel;html=1;align=center;verticalAlign=middle;resizable=0;points=[];" vertex="1" connectable="0" parent="bT0aJn8S0_L-WUXQSwk8-11">
          <mxGeometry x="0.086" y="1" relative="1" as="geometry">
            <mxPoint as="offset" />
          </mxGeometry>
        </mxCell>
        <mxCell id="bT0aJn8S0_L-WUXQSwk8-13" style="edgeStyle=orthogonalEdgeStyle;rounded=0;orthogonalLoop=1;jettySize=auto;html=1;exitX=0;exitY=0.5;exitDx=0;exitDy=0;entryX=0.25;entryY=1;entryDx=0;entryDy=0;" edge="1" parent="dNxyNK7c78bLwvsdeMH5-19" source="bT0aJn8S0_L-WUXQSwk8-9" target="dNxyNK7c78bLwvsdeMH5-24">
          <mxGeometry relative="1" as="geometry" />
        </mxCell>
        <mxCell id="bT0aJn8S0_L-WUXQSwk8-15" value="mutated/Enriched Case" style="edgeLabel;html=1;align=center;verticalAlign=middle;resizable=0;points=[];" vertex="1" connectable="0" parent="bT0aJn8S0_L-WUXQSwk8-13">
          <mxGeometry x="-0.1342" relative="1" as="geometry">
            <mxPoint as="offset" />
          </mxGeometry>
        </mxCell>
        <mxCell id="bT0aJn8S0_L-WUXQSwk8-28" style="edgeStyle=orthogonalEdgeStyle;rounded=0;orthogonalLoop=1;jettySize=auto;html=1;exitX=0.5;exitY=1;exitDx=0;exitDy=0;entryX=0.5;entryY=0;entryDx=0;entryDy=0;" edge="1" parent="dNxyNK7c78bLwvsdeMH5-19" source="bT0aJn8S0_L-WUXQSwk8-21" target="bT0aJn8S0_L-WUXQSwk8-26">
          <mxGeometry relative="1" as="geometry" />
        </mxCell>
        <mxCell id="bT0aJn8S0_L-WUXQSwk8-2" value="Car and insurance &lt;br&gt;offices" style="ellipse;shape=cloud;whiteSpace=wrap;html=1;" vertex="1" parent="1">
          <mxGeometry x="351" y="-10" width="140" height="100" as="geometry" />
        </mxCell>
        <mxCell id="bT0aJn8S0_L-WUXQSwk8-4" value="" style="endArrow=classic;startArrow=classic;html=1;rounded=0;entryX=0.5;entryY=0;entryDx=0;entryDy=0;exitX=0.493;exitY=0.98;exitDx=0;exitDy=0;exitPerimeter=0;" edge="1" parent="1" source="bT0aJn8S0_L-WUXQSwk8-2" target="dNxyNK7c78bLwvsdeMH5-30">
          <mxGeometry width="50" height="50" relative="1" as="geometry">
            <mxPoint x="390" y="460" as="sourcePoint" />
            <mxPoint x="440" y="410" as="targetPoint" />
          </mxGeometry>
        </mxCell>
        <mxCell id="dNxyNK7c78bLwvsdeMH5-32" value="Execute payout flow" style="ellipse;whiteSpace=wrap;html=1;" parent="1" vertex="1">
          <mxGeometry x="1241" y="145" width="70" height="70" as="geometry" />
        </mxCell>
        <mxCell id="bT0aJn8S0_L-WUXQSwk8-23" style="edgeStyle=orthogonalEdgeStyle;rounded=0;orthogonalLoop=1;jettySize=auto;html=1;exitX=1;exitY=0.5;exitDx=0;exitDy=0;entryX=0;entryY=0.5;entryDx=0;entryDy=0;" edge="1" parent="1" source="bT0aJn8S0_L-WUXQSwk8-21" target="dNxyNK7c78bLwvsdeMH5-32">
          <mxGeometry relative="1" as="geometry" />
        </mxCell>
        <mxCell id="bT0aJn8S0_L-WUXQSwk8-24" value="NO" style="edgeLabel;html=1;align=center;verticalAlign=middle;resizable=0;points=[];" vertex="1" connectable="0" parent="bT0aJn8S0_L-WUXQSwk8-23">
          <mxGeometry x="-0.161" y="1" relative="1" as="geometry">
            <mxPoint as="offset" />
          </mxGeometry>
        </mxCell>
        <mxCell id="bT0aJn8S0_L-WUXQSwk8-31" value="Hand over case to Experts" style="ellipse;whiteSpace=wrap;html=1;" vertex="1" parent="1">
          <mxGeometry x="1241" y="275" width="70" height="70" as="geometry" />
        </mxCell>
        <mxCell id="bT0aJn8S0_L-WUXQSwk8-33" style="edgeStyle=orthogonalEdgeStyle;rounded=0;orthogonalLoop=1;jettySize=auto;html=1;exitX=1;exitY=0.5;exitDx=0;exitDy=0;entryX=0;entryY=0.5;entryDx=0;entryDy=0;" edge="1" parent="1" source="bT0aJn8S0_L-WUXQSwk8-29" target="bT0aJn8S0_L-WUXQSwk8-31">
          <mxGeometry relative="1" as="geometry" />
        </mxCell>
      </root>
    </mxGraphModel>
  </diagram>
</mxfile>
